<svg width="361" height="361" viewBox="0 0 361 361" fill="none" xmlns="http://www.w3.org/2000/svg">
<path d="M359.501 65.1146C359.501 100.627 330.735 129.415 295.25 129.415C259.766 129.415 231 100.627 231 65.1146C231 29.6021 259.766 0.814087 295.25 0.814087C330.735 0.814087 359.501 29.6021 359.501 65.1146Z" stroke="#D0CFCF"/>
<path d="M215.334 180.002C215.334 199.608 199.452 215.502 179.861 215.502C160.271 215.502 144.389 199.608 144.389 180.002C144.389 160.395 160.271 144.501 179.861 144.501C199.452 144.501 215.334 160.395 215.334 180.002Z" stroke="#D0CFCF"/>
<path d="M281.705 281.922C312.148 251.455 326.114 210.741 323.602 170.875C335.521 168.026 347.055 163.152 357.658 156.254C364.752 209.747 347.762 265.825 306.691 306.929C236.645 377.028 123.08 377.028 53.0342 306.929C-17.0114 236.829 -17.0114 123.174 53.0342 53.0747C95.1075 10.9688 152.882 -5.84622 207.498 2.63094C200.363 13.1007 195.242 24.5335 192.136 36.3851C151.302 32.9108 109.268 46.8093 78.0201 78.081C21.7744 134.37 21.7744 225.633 78.0201 281.922C134.266 338.212 225.459 338.212 281.705 281.922Z" stroke="#D0CFCF"/>
</svg>
