<svg width="23" height="23" viewBox="0 0 23 23" fill="none" xmlns="http://www.w3.org/2000/svg">
<path d="M22.8237 4.1162C22.8237 6.34044 21.0321 8.14354 18.822 8.14354C16.6119 8.14354 14.8203 6.34044 14.8203 4.1162C14.8203 1.89197 16.6119 0.0888672 18.822 0.0888672C21.0321 0.0888672 22.8237 1.89197 22.8237 4.1162Z" fill="#3DDC90"/>
<ellipse cx="11.6861" cy="11.2565" rx="2.22316" ry="2.23741" fill="#3DDC90"/>
<path d="M20.5389 10.6645C20.7013 13.142 19.8418 15.6747 17.9602 17.5683C14.4962 21.0545 8.87992 21.0545 5.4159 17.5683C1.95188 14.082 1.95188 8.42975 5.4159 4.94352C7.34696 3.00008 9.94688 2.14004 12.4699 2.36339C12.6643 1.6058 12.9907 0.875443 13.4492 0.209329C10.0503 -0.33663 6.44793 0.708746 3.82801 3.34546C-0.512982 7.71427 -0.512982 14.7975 3.82801 19.1663C8.169 23.5351 15.2071 23.5351 19.5481 19.1663C22.106 16.5921 23.1567 13.0754 22.7002 9.72694C22.0292 10.1729 21.2965 10.4855 20.5389 10.6645Z" fill="#F8F8F8"/>
</svg>
