<svg width="141" height="30" viewBox="0 0 141 30" fill="none" xmlns="http://www.w3.org/2000/svg">
<path d="M31.1836 11.2942C31.4933 10.8646 31.9151 10.5156 32.4491 10.2471C32.9938 9.96789 33.5971 9.82828 34.2593 9.82828C35.0389 9.82828 35.7437 10.0162 36.3738 10.3921C37.0039 10.768 37.5005 11.305 37.8636 12.003C38.2267 12.6904 38.4082 13.4797 38.4082 14.3711C38.4082 15.2625 38.2267 16.0626 37.8636 16.7714C37.5005 17.4695 36.9985 18.0172 36.3578 18.4146C35.7277 18.8012 35.0282 18.9945 34.2593 18.9945C33.5758 18.9945 32.9671 18.8603 32.4331 18.5918C31.9098 18.3233 31.4933 17.9796 31.1836 17.5608V18.8495H29.3574V6.92859H31.1836V11.2942ZM36.55 14.3711C36.55 13.759 36.4218 13.2327 36.1655 12.7924C35.9199 12.3413 35.5889 12.003 35.1724 11.7775C34.7665 11.5412 34.3287 11.4231 33.8588 11.4231C33.3996 11.4231 32.9617 11.5412 32.5452 11.7775C32.1394 12.0138 31.8083 12.3574 31.552 12.8085C31.3064 13.2596 31.1836 13.7912 31.1836 14.4033C31.1836 15.0155 31.3064 15.5525 31.552 16.0143C31.8083 16.4653 32.1394 16.809 32.5452 17.0453C32.9617 17.2815 33.3996 17.3997 33.8588 17.3997C34.3287 17.3997 34.7665 17.2815 35.1724 17.0453C35.5889 16.7983 35.9199 16.4438 36.1655 15.982C36.4218 15.5202 36.55 14.9833 36.55 14.3711Z" fill="#2E2E2E"/>
<path d="M40.5025 8.79728C40.1714 8.79728 39.8937 8.68451 39.6695 8.45898C39.4452 8.23345 39.3331 7.95422 39.3331 7.6213C39.3331 7.28837 39.4452 7.00914 39.6695 6.78361C39.8937 6.55808 40.1714 6.44531 40.5025 6.44531C40.8228 6.44531 41.0952 6.55808 41.3194 6.78361C41.5437 7.00914 41.6558 7.28837 41.6558 7.6213C41.6558 7.95422 41.5437 8.23345 41.3194 8.45898C41.0952 8.68451 40.8228 8.79728 40.5025 8.79728ZM41.3995 9.97326V18.8495H39.5734V9.97326H41.3995Z" fill="#2E2E2E"/>
<path d="M46.7126 9.82828C47.3961 9.82828 47.9995 9.96789 48.5228 10.2471C49.0568 10.5156 49.4732 10.8539 49.7723 11.262V9.97326H51.6145V18.9945C51.6145 19.8107 51.4436 20.5356 51.1019 21.1693C50.7601 21.8136 50.2635 22.3184 49.6121 22.6835C48.9713 23.0487 48.2024 23.2313 47.3053 23.2313C46.1092 23.2313 45.116 22.9467 44.3258 22.3775C43.5355 21.819 43.087 21.0565 42.9802 20.0899H44.7903C44.9292 20.5517 45.2228 20.9222 45.6714 21.2015C46.1306 21.4914 46.6752 21.6364 47.3053 21.6364C48.0422 21.6364 48.6349 21.4109 49.0834 20.9598C49.5427 20.5088 49.7723 19.8537 49.7723 18.9945V17.5124C49.4626 17.9313 49.0407 18.2857 48.5068 18.5757C47.9835 18.8549 47.3854 18.9945 46.7126 18.9945C45.9437 18.9945 45.2389 18.8012 44.5981 18.4146C43.968 18.0172 43.4661 17.4695 43.0923 16.7714C42.7292 16.0626 42.5477 15.2625 42.5477 14.3711C42.5477 13.4797 42.7292 12.6904 43.0923 12.003C43.4661 11.3157 43.968 10.7841 44.5981 10.4082C45.2389 10.0216 45.9437 9.82828 46.7126 9.82828ZM49.7723 14.4033C49.7723 13.7912 49.6441 13.2596 49.3878 12.8085C49.1422 12.3574 48.8165 12.0138 48.4106 11.7775C48.0048 11.5412 47.567 11.4231 47.0971 11.4231C46.6272 11.4231 46.1893 11.5412 45.7835 11.7775C45.3777 12.003 45.0466 12.3413 44.7903 12.7924C44.5447 13.2327 44.4219 13.759 44.4219 14.3711C44.4219 14.9833 44.5447 15.5202 44.7903 15.982C45.0466 16.4438 45.3777 16.7983 45.7835 17.0453C46.2 17.2815 46.6379 17.3997 47.0971 17.3997C47.567 17.3997 48.0048 17.2815 48.4106 17.0453C48.8165 16.809 49.1422 16.4653 49.3878 16.0143C49.6441 15.5525 49.7723 15.0155 49.7723 14.4033Z" fill="#2E2E2E"/>
<path d="M65.2265 9.97326L62.4872 18.8495H60.5649L58.7868 12.293L57.0087 18.8495H55.0864L52.3311 9.97326H54.1893L56.0315 17.1097L57.9057 9.97326H59.812L61.6061 17.0775L63.4323 9.97326H65.2265Z" fill="#2E2E2E"/>
<path d="M65.3417 14.3711C65.3417 13.4797 65.5233 12.6904 65.8864 12.003C66.2601 11.3157 66.7621 10.7841 67.3922 10.4082C68.0329 10.0216 68.7378 9.82828 69.5067 9.82828C70.2008 9.82828 70.8042 9.96789 71.3168 10.2471C71.8401 10.5156 72.2566 10.8539 72.5663 11.262V9.97326H74.4085V18.8495H72.5663V17.5285C72.2566 17.9474 71.8348 18.2964 71.3008 18.5757C70.7669 18.8549 70.1581 18.9945 69.4746 18.9945C68.7164 18.9945 68.0222 18.8012 67.3922 18.4146C66.7621 18.0172 66.2601 17.4695 65.8864 16.7714C65.5233 16.0626 65.3417 15.2625 65.3417 14.3711ZM72.5663 14.4033C72.5663 13.7912 72.4382 13.2596 72.1819 12.8085C71.9362 12.3574 71.6105 12.0138 71.2047 11.7775C70.7989 11.5412 70.361 11.4231 69.8911 11.4231C69.4212 11.4231 68.9834 11.5412 68.5776 11.7775C68.1718 12.003 67.8407 12.3413 67.5844 12.7924C67.3388 13.2327 67.216 13.759 67.216 14.3711C67.216 14.9833 67.3388 15.5202 67.5844 15.982C67.8407 16.4438 68.1718 16.7983 68.5776 17.0453C68.9941 17.2815 69.4319 17.3997 69.8911 17.3997C70.361 17.3997 70.7989 17.2815 71.2047 17.0453C71.6105 16.809 71.9362 16.4653 72.1819 16.0143C72.4382 15.5525 72.5663 15.0155 72.5663 14.4033Z" fill="#2E2E2E"/>
<path d="M84.1119 9.97326L78.6974 23.0218H76.8071L78.6013 18.7045L75.1251 9.97326H77.1596L79.6425 16.7392L82.2216 9.97326H84.1119Z" fill="#2E2E2E"/>
<path d="M83.9389 18.9623C83.6079 18.9623 83.3302 18.8496 83.1059 18.624C82.8817 18.3985 82.7695 18.1193 82.7695 17.7863C82.7695 17.4534 82.8817 17.1742 83.1059 16.9486C83.3302 16.7231 83.6079 16.6104 83.9389 16.6104C84.2593 16.6104 84.5316 16.7231 84.7559 16.9486C84.9802 17.1742 85.0923 17.4534 85.0923 17.7863C85.0923 18.1193 84.9802 18.3985 84.7559 18.624C84.5316 18.8496 84.2593 18.9623 83.9389 18.9623Z" fill="#3DDC90"/>
<path d="M89.9656 18.9945C89.2715 18.9945 88.6467 18.871 88.0914 18.624C87.5468 18.3662 87.1142 18.0226 86.7939 17.593C86.4735 17.1527 86.3026 16.664 86.2812 16.127H88.1715C88.2035 16.5029 88.3798 16.8197 88.7001 17.0775C89.0312 17.3245 89.4424 17.448 89.9336 17.448C90.4462 17.448 90.8414 17.3513 91.119 17.158C91.4074 16.954 91.5515 16.6962 91.5515 16.3848C91.5515 16.0519 91.3913 15.8048 91.071 15.6438C90.7613 15.4827 90.2647 15.3055 89.5812 15.1121C88.9191 14.9296 88.3798 14.7524 87.9633 14.5805C87.5468 14.4087 87.1837 14.1456 86.874 13.7912C86.5749 13.4368 86.4254 12.9696 86.4254 12.3897C86.4254 11.9171 86.5643 11.4875 86.8419 11.1009C87.1196 10.7036 87.5147 10.3921 88.0273 10.1666C88.5506 9.94104 89.1487 9.82828 89.8215 9.82828C90.8253 9.82828 91.6316 10.086 92.2404 10.6015C92.8598 11.1063 93.1908 11.799 93.2335 12.6796H91.4074C91.3753 12.2823 91.2151 11.9654 90.9268 11.7292C90.6384 11.4929 90.2486 11.3748 89.7574 11.3748C89.2768 11.3748 88.9084 11.4661 88.6521 11.6486C88.3958 11.8312 88.2676 12.0728 88.2676 12.3736C88.2676 12.6098 88.3531 12.8085 88.5239 12.9696C88.6948 13.1307 88.903 13.2596 89.1487 13.3562C89.3943 13.4421 89.7574 13.5549 90.238 13.6945C90.8787 13.8664 91.402 14.0436 91.8078 14.2261C92.2243 14.398 92.5821 14.6557 92.8811 14.9994C93.1801 15.343 93.335 15.7995 93.3457 16.3687C93.3457 16.8734 93.2068 17.3245 92.9292 17.7219C92.6515 18.1192 92.2564 18.4307 91.7438 18.6562C91.2418 18.8817 90.6491 18.9945 89.9656 18.9945Z" fill="#2E2E2E"/>
<path d="M96.8087 11.4714V16.3848C96.8087 16.7177 96.8834 16.9593 97.0329 17.1097C97.1931 17.2493 97.4601 17.3191 97.8339 17.3191H98.9552V18.8495H97.5135C96.6912 18.8495 96.0611 18.6562 95.6233 18.2696C95.1854 17.883 94.9665 17.2547 94.9665 16.3848V11.4714H93.9252V9.97326H94.9665V7.76628H96.8087V9.97326H98.9552V11.4714H96.8087Z" fill="#2E2E2E"/>
<path d="M107.991 9.97326V18.8495H106.165V17.8024C105.877 18.1676 105.498 18.4575 105.028 18.6723C104.568 18.8764 104.077 18.9784 103.554 18.9784C102.86 18.9784 102.235 18.8334 101.68 18.5434C101.135 18.2535 100.702 17.8239 100.382 17.2547C100.072 16.6855 99.9175 15.9982 99.9175 15.1927V9.97326H101.728V14.9188C101.728 15.7136 101.925 16.3257 102.32 16.7553C102.716 17.1741 103.255 17.3836 103.938 17.3836C104.622 17.3836 105.161 17.1741 105.556 16.7553C105.962 16.3257 106.165 15.7136 106.165 14.9188V9.97326H107.991Z" fill="#2E2E2E"/>
<path d="M109.151 14.3711C109.151 13.4797 109.333 12.6904 109.696 12.003C110.07 11.3157 110.572 10.7841 111.202 10.4082C111.842 10.0216 112.553 9.82828 113.332 9.82828C113.909 9.82828 114.475 9.95715 115.03 10.2149C115.596 10.4619 116.045 10.7948 116.376 11.2137V6.92859H118.218V18.8495H116.376V17.5124C116.077 17.942 115.66 18.2964 115.126 18.5757C114.603 18.8549 114 18.9945 113.316 18.9945C112.547 18.9945 111.842 18.8012 111.202 18.4146C110.572 18.0172 110.07 17.4695 109.696 16.7714C109.333 16.0626 109.151 15.2625 109.151 14.3711ZM116.376 14.4033C116.376 13.7912 116.248 13.2596 115.991 12.8085C115.746 12.3574 115.42 12.0138 115.014 11.7775C114.608 11.5412 114.17 11.4231 113.701 11.4231C113.231 11.4231 112.793 11.5412 112.387 11.7775C111.981 12.003 111.65 12.3413 111.394 12.7924C111.148 13.2327 111.025 13.759 111.025 14.3711C111.025 14.9833 111.148 15.5202 111.394 15.982C111.65 16.4438 111.981 16.7983 112.387 17.0453C112.804 17.2815 113.241 17.3997 113.701 17.3997C114.17 17.3997 114.608 17.2815 115.014 17.0453C115.42 16.809 115.746 16.4653 115.991 16.0143C116.248 15.5525 116.376 15.0155 116.376 14.4033Z" fill="#2E2E2E"/>
<path d="M120.905 8.79728C120.574 8.79728 120.296 8.68451 120.072 8.45898C119.848 8.23345 119.736 7.95422 119.736 7.6213C119.736 7.28837 119.848 7.00914 120.072 6.78361C120.296 6.55808 120.574 6.44531 120.905 6.44531C121.225 6.44531 121.498 6.55808 121.722 6.78361C121.946 7.00914 122.058 7.28837 122.058 7.6213C122.058 7.95422 121.946 8.23345 121.722 8.45898C121.498 8.68451 121.225 8.79728 120.905 8.79728ZM121.802 9.97326V18.8495H119.976V9.97326H121.802Z" fill="#2E2E2E"/>
<path d="M127.387 18.9945C126.554 18.9945 125.802 18.8066 125.129 18.4307C124.456 18.044 123.927 17.5071 123.543 16.8197C123.158 16.1217 122.966 15.3162 122.966 14.4033C122.966 13.5012 123.164 12.7011 123.559 12.003C123.954 11.305 124.493 10.768 125.177 10.3921C125.86 10.0162 126.624 9.82828 127.467 9.82828C128.311 9.82828 129.075 10.0162 129.758 10.3921C130.442 10.768 130.981 11.305 131.376 12.003C131.771 12.7011 131.969 13.5012 131.969 14.4033C131.969 15.3055 131.766 16.1056 131.36 16.8036C130.954 17.5017 130.399 18.044 129.694 18.4307C129 18.8066 128.231 18.9945 127.387 18.9945ZM127.387 17.3997C127.857 17.3997 128.295 17.2869 128.701 17.0614C129.117 16.8358 129.454 16.4975 129.71 16.0465C129.966 15.5954 130.095 15.0477 130.095 14.4033C130.095 13.759 129.972 13.2166 129.726 12.7763C129.481 12.3252 129.155 11.9869 128.749 11.7614C128.343 11.5359 127.905 11.4231 127.435 11.4231C126.966 11.4231 126.528 11.5359 126.122 11.7614C125.727 11.9869 125.412 12.3252 125.177 12.7763C124.942 13.2166 124.824 13.759 124.824 14.4033C124.824 15.3592 125.065 16.1002 125.545 16.6264C126.036 17.1419 126.651 17.3997 127.387 17.3997Z" fill="#2E2E2E"/>
<path d="M24.8237 6.1162C24.8237 8.34044 23.0321 10.1435 20.822 10.1435C18.6119 10.1435 16.8203 8.34044 16.8203 6.1162C16.8203 3.89197 18.6119 2.08887 20.822 2.08887C23.0321 2.08887 24.8237 3.89197 24.8237 6.1162Z" fill="#3DDC90"/>
<ellipse cx="13.6861" cy="13.2565" rx="2.22316" ry="2.23741" fill="#3DDC90"/>
<path d="M22.5389 12.6645C22.7013 15.142 21.8418 17.6747 19.9602 19.5683C16.4962 23.0545 10.8799 23.0545 7.4159 19.5683C3.95188 16.082 3.95188 10.4297 7.4159 6.94352C9.34696 5.00008 11.9469 4.14004 14.4699 4.36339C14.6643 3.6058 14.9907 2.87544 15.4492 2.20933C12.0503 1.66337 8.44793 2.70875 5.82801 5.34546C1.48702 9.71427 1.48702 16.7975 5.82801 21.1663C10.169 25.5351 17.2071 25.5351 21.5481 21.1663C24.106 18.5921 25.1567 15.0754 24.7002 11.7269C24.0292 12.1729 23.2965 12.4855 22.5389 12.6645Z" fill="#2E2E2E"/>
</svg>
