<svg width="23" height="23" viewBox="0 0 23 23" fill="none" xmlns="http://www.w3.org/2000/svg">
<path d="M22.2515 4.04733C22.2515 6.27157 20.4598 8.07467 18.2498 8.07467C16.0397 8.07467 14.2481 6.27157 14.2481 4.04733C14.2481 1.82309 16.0397 0.0199928 18.2498 0.0199928C20.4598 0.0199928 22.2515 1.82309 22.2515 4.04733Z" fill="#3DDC90"/>
<ellipse cx="11.1145" cy="11.1874" rx="2.22316" ry="2.23741" fill="#3DDC90"/>
<path d="M19.9666 10.5957C20.1291 13.0731 19.2695 15.6058 17.388 17.4994C13.9239 20.9856 8.30766 20.9856 4.84363 17.4994C1.37961 14.0132 1.37961 8.3609 4.84363 4.87468C6.7747 2.93124 9.37461 2.07119 11.8977 2.29454C12.092 1.53695 12.4184 0.806596 12.8769 0.140482C9.47801 -0.405477 5.87566 0.639899 3.25574 3.27661C-1.08525 7.64542 -1.08525 14.7287 3.25574 19.0975C7.59673 23.4663 14.6349 23.4663 18.9759 19.0975C21.5337 16.5232 22.5844 13.0066 22.1279 9.65809C21.457 10.1041 20.7242 10.4166 19.9666 10.5957Z" fill="#2E2E2E"/>
</svg>
