<svg width="60" height="60" viewBox="0 0 60 60" fill="none" xmlns="http://www.w3.org/2000/svg">
<circle cx="30" cy="30" r="30" fill="#3DDC90"/>
<path d="M46.9994 19.1514C46.9994 22.5312 44.2616 25.271 40.8844 25.271C37.5073 25.271 34.7695 22.5312 34.7695 19.1514C34.7695 15.7716 37.5073 13.0317 40.8844 13.0317C44.2616 13.0317 46.9994 15.7716 46.9994 19.1514Z" fill="#F8F8F8"/>
<ellipse cx="29.987" cy="30.0014" rx="3.39717" ry="3.39981" fill="#F8F8F8"/>
<path d="M43.5106 29.1028C43.7589 32.8674 42.4454 36.7159 39.5703 39.5933C34.2769 44.8907 25.6948 44.8907 20.4015 39.5933C15.1082 34.2958 15.1082 25.707 20.4015 20.4096C23.3523 17.4565 27.3252 16.1497 31.1806 16.4891C31.4776 15.3379 31.9764 14.2281 32.677 13.2159C27.4832 12.3863 21.9785 13.9748 17.975 17.9813C11.3417 24.6199 11.3417 35.383 17.975 42.0216C24.6084 48.6601 35.3633 48.6601 41.9967 42.0216C45.9053 38.1099 47.5108 32.7663 46.8133 27.6782C45.788 28.3559 44.6683 28.8308 43.5106 29.1028Z" fill="#F8F8F8"/>
</svg>
